<svg width="70" height="70" viewBox="0 0 70 70" fill="none" xmlns="http://www.w3.org/2000/svg">
<g clip-path="url(#clip0_2286_755)">
<g filter="url(#filter0_d_2286_755)">
<path d="M67.3163 48.3385L48.8468 29.7337L50.8966 19.6373C51.4256 19.8438 51.9879 19.9517 52.5556 19.9558H52.5696C55.1777 19.9866 57.3169 17.8974 57.3479 15.2893C57.3788 12.6812 55.2894 10.542 52.6813 10.5111C50.0732 10.4803 47.934 12.5695 47.9031 15.1776C47.8965 15.7357 47.9888 16.2905 48.176 16.8163L37.326 18.1405L19.6276 0.35C19.4105 0.128479 19.1141 0.00247917 18.804 0C18.4977 0.00160417 18.2044 0.123521 17.9873 0.3395L14.6786 3.6295C14.2232 4.08508 14.2232 4.82358 14.6786 5.27917L16.459 7.08517C9.56162 19.7681 11.8019 35.4741 21.9703 45.7228C22.0636 45.8121 22.1718 45.8843 22.29 45.9363C22.2165 46.3311 22.1781 46.7317 22.1756 47.1333V60.6667H8.17562C4.95562 60.6705 2.34608 63.28 2.34229 66.5V68.8333C2.34229 69.4776 2.86466 70 3.50895 70H57.1756C57.8199 70 58.3423 69.4776 58.3423 68.8333V66.5C58.3385 63.28 55.729 60.6705 52.509 60.6667H38.509V54.6688C40.7021 55.1288 42.9367 55.3633 45.1776 55.3688C50.5548 55.363 55.8464 54.0225 60.5776 51.4675L62.3673 53.2677C62.5844 53.4892 62.8808 53.6152 63.191 53.6177C63.4972 53.6161 63.7905 53.4941 64.0076 53.2782L67.3163 49.9882C67.7717 49.5326 67.7717 48.7941 67.3163 48.3385ZM50.9246 13.6348C51.8383 12.726 53.3157 12.7301 54.2244 13.6437C55.1332 14.5574 55.1291 16.0348 54.2155 16.9435C53.7781 17.3785 53.1864 17.6226 52.5695 17.6225H52.5625C51.2739 17.6158 50.2345 16.5658 50.2412 15.2771C50.2445 14.6602 50.4918 14.0699 50.9291 13.6348H50.9246V13.6348ZM48.1783 21.301L46.8693 27.7445L44.298 25.158L48.1783 21.301ZM46.853 19.3282L42.653 23.5037L39.4038 20.237L46.853 19.3282ZM52.509 63C54.442 63 56.009 64.567 56.009 66.5V67.6667H4.67562V66.5C4.67562 64.567 6.2426 63 8.17562 63H52.509ZM36.1756 58.3333V60.6667H24.509V58.3333H36.1756ZM24.509 56V47.1333C24.509 44.303 27.1258 42 30.3423 42C33.5588 42 36.1756 44.303 36.1756 47.1333V56H24.509ZM38.509 52.29V47.1333C38.509 43.0162 34.8456 39.6667 30.3423 39.6667C27.4306 39.622 24.7079 41.1041 23.165 43.5738C14.2887 34.2249 12.2899 20.2875 18.1805 8.82073L58.872 49.7455C52.5886 52.9419 45.3857 53.8418 38.509 52.29ZM63.2038 50.7943L61.56 49.1412L18.7923 6.11567L17.1415 4.46133L18.7923 2.81633L36.15 20.272C36.1581 20.272 36.1628 20.2872 36.171 20.293L64.8593 49.1493L63.2038 50.7943Z" fill="#212121"/>
<path d="M66.9614 48.6908L66.9627 48.692C67.2229 48.9523 67.2229 49.3743 66.9627 49.6347L63.6551 52.9236L63.655 52.9237C63.5317 53.0463 63.3655 53.1159 63.1917 53.1176C63.0158 53.1154 62.8478 53.0436 62.7244 52.9176L62.7219 52.9151L60.9322 51.115L60.6688 50.85L60.34 51.0276C55.682 53.543 50.4723 54.8629 45.1783 54.8688C42.9717 54.8633 40.7712 54.6324 38.6116 54.1795L38.009 54.0531V54.6688V60.6667V61.1667H38.509H52.5084C55.4527 61.1701 57.8388 63.5563 57.8423 66.5006V68.8333C57.8423 69.2015 57.5438 69.5 57.1756 69.5H3.50895C3.1408 69.5 2.84229 69.2015 2.84229 68.8333V66.5003C2.84591 63.5561 5.23199 61.1701 8.17621 61.1667H22.1756H22.6756V60.6667V47.1349C22.678 46.7636 22.7135 46.3931 22.7815 46.0279L22.854 45.6385L22.4916 45.4788C22.4282 45.4508 22.3702 45.4125 22.32 45.3654C12.3116 35.2733 10.1076 19.8108 16.8982 7.32404L17.0754 6.99825L16.815 6.73415L15.0347 4.92815L15.0347 4.92814L15.0322 4.92567C14.7722 4.66552 14.772 4.24391 15.0317 3.98354C15.0319 3.98336 15.032 3.98318 15.0322 3.983L18.3398 0.694052L18.3399 0.694004C18.4632 0.571345 18.6294 0.50179 18.8033 0.500019C18.9792 0.502297 19.1472 0.574125 19.2705 0.700019L19.2731 0.702634L36.9715 18.4931L37.1439 18.6664L37.3865 18.6368L48.2365 17.3126L48.8563 17.237L48.647 16.6487C48.4797 16.1786 48.3972 15.6826 48.4031 15.1835C48.4307 12.8516 50.3435 10.9835 52.6754 11.011C55.0074 11.0387 56.8755 12.9515 56.8479 15.2834C56.8202 17.6154 54.9075 19.4834 52.5755 19.4559V19.4558H52.5696H52.5574C52.0513 19.452 51.55 19.3557 51.0785 19.1716L50.5249 18.9554L50.4066 19.5378L48.3568 29.6342L48.3036 29.8962L48.4919 30.0859L66.9614 48.6908ZM50.5743 13.2826C50.0446 13.8106 49.7451 14.5264 49.7412 15.2745C49.7331 16.8394 50.9952 18.1143 52.5599 18.1225H52.5625H52.5694C52.5694 18.1225 52.5694 18.1225 52.5695 18.1225C53.3185 18.1226 54.0371 17.8262 54.5681 17.298C55.6775 16.1946 55.6825 14.4006 54.5789 13.2911C53.4755 12.1817 51.6814 12.1767 50.572 13.2803L50.5743 13.2826ZM48.6683 21.4005L48.997 19.7822L47.8258 20.9464L43.9455 24.8034L43.5908 25.1559L43.9434 25.5105L46.5147 28.097L47.1733 28.7595L47.3593 27.844L48.6683 21.4005ZM47.2055 19.6828L48.2389 18.6554L46.7924 18.8318L39.3432 19.7407L38.3281 19.8645L39.0493 20.5896L42.2985 23.8563L42.651 24.2107L43.0055 23.8583L47.2055 19.6828ZM56.009 68.1667H56.509V67.6667V66.5C56.509 64.2908 54.7181 62.5 52.509 62.5H8.17562C5.96646 62.5 4.17562 64.2908 4.17562 66.5V67.6667V68.1667H4.67562H56.009ZM36.6756 58.3333V57.8333H36.1756H24.509H24.009V58.3333V60.6667V61.1667H24.509H36.1756H36.6756V60.6667V58.3333ZM24.009 56V56.5H24.509H36.1756H36.6756V56V47.1333C36.6756 43.9687 33.773 41.5 30.3423 41.5C26.9116 41.5 24.009 43.9687 24.009 47.1333V56ZM38.009 52.29V52.6897L38.3989 52.7777C45.3894 54.3552 52.7114 53.4404 59.0987 50.1912L59.7106 49.8798L59.2265 49.393L18.5351 8.46819L18.0501 7.98041L17.7358 8.59226C11.748 20.248 13.7798 34.4151 22.8024 43.9181L23.2469 44.3863L23.589 43.8388C25.0391 41.5176 27.598 40.1247 30.3346 40.1666L30.3346 40.1667H30.3423C34.6126 40.1667 38.009 43.3335 38.009 47.1333V52.29ZM62.8492 51.1469L63.2017 51.5013L63.5562 51.149L65.2117 49.504L65.5665 49.1515L65.2139 48.7968L36.543 19.958C36.5291 19.9414 36.51 19.9204 36.4865 19.8996C36.483 19.8966 36.4793 19.8934 36.4754 19.8901L19.1468 2.46378L18.7939 2.10886L18.4394 2.46215L16.7885 4.10715L16.4341 4.46033L16.7875 4.81451L18.4377 6.46816L18.4384 6.46885L61.2053 49.4937L61.2054 49.4937L62.8492 51.1469Z" stroke="black"/>
</g>
<path d="M30.3528 44.3333H30.3423C28.4093 44.3304 26.84 45.895 26.837 47.8281C26.8341 49.7611 28.3988 51.3304 30.3318 51.3333H30.3423C32.2753 51.3362 33.8446 49.7716 33.8475 47.8386C33.8505 45.9055 32.2858 44.3362 30.3528 44.3333ZM31.1695 48.6605C30.9498 48.8789 30.6522 49.0012 30.3423 49C29.698 48.9966 29.1784 48.4716 29.1817 47.8273C29.1834 47.5189 29.307 47.2237 29.5256 47.0062C29.7428 46.7902 30.036 46.6683 30.3423 46.6667C30.9866 46.67 31.5062 47.195 31.5028 47.8393C31.5012 48.1477 31.3776 48.4429 31.159 48.6605H31.1695Z" fill="#2196F3"/>
</g>
<defs>
<filter id="filter0_d_2286_755" x="-1.65771" y="0" width="73.3156" height="78" filterUnits="userSpaceOnUse" color-interpolation-filters="sRGB">
<feFlood flood-opacity="0" result="BackgroundImageFix"/>
<feColorMatrix in="SourceAlpha" type="matrix" values="0 0 0 0 0 0 0 0 0 0 0 0 0 0 0 0 0 0 127 0" result="hardAlpha"/>
<feOffset dy="4"/>
<feGaussianBlur stdDeviation="2"/>
<feComposite in2="hardAlpha" operator="out"/>
<feColorMatrix type="matrix" values="0 0 0 0 0 0 0 0 0 0 0 0 0 0 0 0 0 0 0.25 0"/>
<feBlend mode="normal" in2="BackgroundImageFix" result="effect1_dropShadow_2286_755"/>
<feBlend mode="normal" in="SourceGraphic" in2="effect1_dropShadow_2286_755" result="shape"/>
</filter>
<clipPath id="clip0_2286_755">
<rect width="70" height="70" fill="white"/>
</clipPath>
</defs>
</svg>
